<svg width="21" height="20" viewBox="0 0 21 20" fill="none" xmlns="http://www.w3.org/2000/svg">
<path d="M16.5553 14.1952C17.3401 13.9849 18.081 14.0937 18.778 14.5217C19.4669 14.9194 19.9125 15.4956 20.1147 16.2502C20.325 17.035 20.2202 17.791 19.8004 18.5182C19.4026 19.2071 18.8264 19.6527 18.0718 19.8549C17.3172 20.0571 16.5803 19.9634 15.8612 19.5737C15.1642 19.1458 14.7105 18.5394 14.5003 17.7546C14.4194 17.4527 14.3779 17.2374 14.3757 17.1086L6.47111 14.9561C6.03509 15.6229 5.43977 16.0574 4.68514 16.2596C3.90032 16.4699 3.14432 16.3651 2.41713 15.9453C1.68994 15.5255 1.22119 14.9231 1.0109 14.1383C0.800614 13.3535 0.905391 12.5975 1.32524 11.8703C1.74508 11.1431 2.34741 10.6744 3.13222 10.4641C3.88685 10.2619 4.61968 10.3405 5.33069 10.7L11.0669 4.94099C10.9256 4.65532 10.8348 4.43702 10.7943 4.28609C10.584 3.50127 10.6888 2.74527 11.1087 2.01808C11.5285 1.29089 12.1308 0.822145 12.9156 0.611855C13.7005 0.401564 14.4565 0.506342 15.1837 0.926186C15.9108 1.34603 16.3796 1.94836 16.5899 2.73318C16.8002 3.51799 16.6954 4.27399 16.2755 5.00119C15.8557 5.72838 15.2534 6.19712 14.4686 6.40741C13.7441 6.60152 13.0072 6.5078 12.258 6.12622L6.53392 11.9305C6.67517 12.2162 6.76602 12.4345 6.80646 12.5854C6.8469 12.7363 6.87738 12.9708 6.89789 13.2888L14.8477 15.4292C15.2617 14.8006 15.8308 14.3893 16.5553 14.1952Z" fill="#666666" fill-opacity="0.5"/>
</svg>
