<svg width="25" height="24" viewBox="0 0 25 24" fill="none" xmlns="http://www.w3.org/2000/svg">
<path d="M14.8445 20.5247L13.1012 19.6331C11.1131 18.6128 9.66389 17.8527 8.75342 17.3525C7.84295 16.8524 6.79744 16.2105 5.61688 15.4268C4.46652 14.6351 3.61613 13.8762 3.06571 13.1502C2.50721 12.3939 2.11068 11.5781 1.87613 10.7028C1.47981 9.2237 1.64221 7.83756 2.36332 6.54436C3.11463 5.24307 4.24491 4.39022 5.75416 3.98581C7.5049 3.5167 9.13578 3.80764 10.6468 4.85863C11.4298 3.19295 12.6968 2.12555 14.4475 1.65644C15.9568 1.25204 17.3469 1.42953 18.618 2.18892C19.9193 2.94022 20.7681 4.05541 21.1645 5.53448C21.4799 6.7117 21.4151 8.03935 20.9699 9.51742C20.5248 10.9955 19.9598 12.3278 19.2748 13.5142C18.6199 14.6926 17.5019 16.4966 15.9205 18.9261L14.8445 20.5247Z" fill="#666666" fill-opacity="0.5"/>
</svg>
